<svg width="50" height="50" viewBox="0 0 50 50" fill="none" xmlns="http://www.w3.org/2000/svg">
<g clip-path="url(#clip0_407_296)">
<path d="M0 25C0 11.193 11.193 0 25 0C38.807 0 50 11.193 50 25H0Z" fill="#F0F0F0"/>
<path d="M18.4782 23.6333L17.1115 25H18.4782V23.6333Z" fill="#0052B4"/>
<path d="M31.5218 23.6334V25H32.8884L31.5218 23.6334Z" fill="#0052B4"/>
<path d="M0.721289 19.0219C0.251074 20.9375 0 22.9393 0 25H7.88838L13.8665 19.0219H0.721289Z" fill="#0052B4"/>
<path d="M36.1333 19.0219L42.1114 25H50C50 22.9393 49.7488 20.9375 49.2787 19.0219H36.1333Z" fill="#0052B4"/>
<path d="M34.5961 19.0219H31.5218L37.4999 25H40.5743L34.5961 19.0219Z" fill="#D80027"/>
<path d="M18.4782 22.096V19.0219H18.478L12.4999 25H15.5743L18.4782 22.096Z" fill="#D80027"/>
<path d="M11.7111 3.82251C10.6807 4.47056 9.70087 5.19146 8.7789 5.97827H13.8668L11.7111 3.82251Z" fill="#0052B4"/>
<path d="M41.2211 5.97827C40.2991 5.19136 39.3194 4.47046 38.2891 3.82251L36.1334 5.97827H41.2211Z" fill="#0052B4"/>
<path d="M28.2608 15.7608H48.2364C47.2913 13.3859 45.9923 11.1908 44.4051 9.23906H28.2609H28.2608V0.211621C27.1935 0.0726563 26.1052 0 25 0C23.8946 0 22.8065 0.0726563 21.7392 0.211621V9.23897V9.23906H5.59493C4.00772 11.1908 2.7087 13.3859 1.76358 15.7608H21.739H21.7391V25H28.2608V15.7609V15.7608Z" fill="#D80027"/>
<path d="M18.4782 5.97817V5.97808L14.7094 2.20923C14.0126 2.52437 13.3335 2.87153 12.6727 3.24683L15.404 5.97817H18.4782Z" fill="#D80027"/>
<path d="M31.5218 5.97822L35.2907 2.20938C34.5738 1.88525 33.8388 1.59463 33.0878 1.33789L31.5218 2.904V5.97822Z" fill="#D80027"/>
<path d="M50 25C50 38.807 38.807 50 25 50C11.193 50 0 38.807 0 25H50Z" fill="#F0F0F0"/>
<path d="M45.833 28.1885C43.7497 28.1885 43.7497 26.2836 41.6663 26.2836C39.583 26.2836 39.583 28.1885 37.4998 28.1885C35.4166 28.1885 35.4165 26.2836 33.3333 26.2836C31.25 26.2836 31.25 28.1885 29.1666 28.1885C27.0832 28.1885 27.0831 26.2836 24.9996 26.2836C22.9163 26.2836 22.9163 28.1885 20.8331 28.1885C18.7501 28.1885 18.7501 26.2836 16.6668 26.2836C14.5833 26.2836 14.5833 28.1885 12.4998 28.1885C10.4163 28.1885 10.4163 26.2836 8.33282 26.2836C6.24982 26.2836 6.24982 28.1885 4.16652 28.1885C2.09445 28.1885 2.08243 26.3046 0.0325317 26.2844C0.0902466 27.428 0.22677 28.5507 0.433215 29.6485C2.09376 29.8926 2.23917 31.5218 4.16661 31.5218C6.24991 31.5218 6.24991 29.6171 8.33292 29.6171C10.4164 29.6171 10.4164 31.5218 12.4999 31.5218C14.5834 31.5218 14.5834 29.6171 16.6669 29.6171C18.7502 29.6171 18.7502 31.5218 20.8332 31.5218C22.9165 31.5218 22.9165 29.6171 24.9997 29.6171C27.0832 29.6171 27.0832 31.5218 29.1667 31.5218C31.2502 31.5218 31.2502 29.6171 33.3334 29.6171C35.4167 29.6171 35.4167 31.5218 37.4999 31.5218C39.5831 31.5218 39.5832 29.6171 41.6664 29.6171C43.7499 29.6171 43.7499 31.5218 45.8331 31.5218C47.7607 31.5218 47.9062 29.8926 49.5668 29.6486C49.7733 28.5507 49.9097 27.4281 49.9677 26.2845C47.9174 26.3048 47.9052 28.1885 45.833 28.1885V28.1885Z" fill="#0052B4"/>
<path d="M41.6663 32.8053C39.583 32.8053 39.583 34.7102 37.4998 34.7102C35.4166 34.7102 35.4165 32.8053 33.3333 32.8053C31.25 32.8053 31.25 34.7102 29.1666 34.7102C27.0831 34.7102 27.0831 32.8053 24.9996 32.8053C22.9163 32.8053 22.9163 34.7102 20.8331 34.7102C18.7501 34.7102 18.7501 32.8053 16.6668 32.8053C14.5833 32.8053 14.5833 34.7102 12.4998 34.7102C10.4163 34.7102 10.4163 32.8053 8.33282 32.8053C6.24982 32.8053 6.24982 34.7102 4.16652 34.7102C2.67794 34.7102 2.25275 33.7379 1.3714 33.1824C1.95812 34.8777 2.7214 36.4903 3.64064 37.9977C3.8005 38.0272 3.97452 38.0435 4.16652 38.0435C6.24982 38.0435 6.24982 36.1388 8.33282 36.1388C10.4163 36.1388 10.4163 38.0435 12.4998 38.0435C14.5833 38.0435 14.5833 36.1388 16.6668 36.1388C18.7501 36.1388 18.7501 38.0435 20.8331 38.0435C22.9164 38.0435 22.9164 36.1388 24.9996 36.1388C27.0831 36.1388 27.0831 38.0435 29.1666 38.0435C31.2501 38.0435 31.2501 36.1388 33.3333 36.1388C35.4166 36.1388 35.4166 38.0435 37.4998 38.0435C39.583 38.0435 39.5831 36.1388 41.6663 36.1388C43.7498 36.1388 43.7498 38.0435 45.833 38.0435C46.0251 38.0435 46.1992 38.0272 46.3591 37.9976C47.2783 36.4903 48.0416 34.8777 48.6285 33.1825C47.7471 33.7377 47.3219 34.7102 45.833 34.7102C43.7498 34.7102 43.7498 32.8053 41.6663 32.8053Z" fill="#0052B4"/>
<path d="M49.9865 24.2146C49.9887 24.284 49.9911 24.3535 49.9927 24.4232C49.9911 24.3536 49.9886 24.284 49.9865 24.2146Z" fill="#F0F0F0"/>
<path d="M0.00732422 24.4231C0.00898437 24.3534 0.0113281 24.284 0.0134766 24.2145C0.0114258 24.284 0.00888672 24.3535 0.00732422 24.4231V24.4231Z" fill="#F0F0F0"/>
<path d="M0 25C0 24.8072 0.00292969 24.6151 0.00732422 24.4231C0.00283203 24.6151 0 24.8072 0 25Z" fill="#F0F0F0"/>
<path d="M0 25C0 25.4554 0.0128906 25.9078 0.037207 26.3571C2.08242 26.3801 2.096 28.2608 4.1666 28.2608C6.2499 28.2608 6.2499 26.3562 8.33291 26.3562C10.4164 26.3562 10.4164 28.2608 12.4999 28.2608C14.5834 28.2608 14.5834 26.3562 16.6669 26.3562C18.7502 26.3562 18.7502 28.2608 20.8332 28.2608C22.9165 28.2608 22.9165 26.3562 24.9997 26.3562C27.0832 26.3562 27.0832 28.2608 29.1667 28.2608C31.2502 28.2608 31.2502 26.3562 33.3334 26.3562C35.4167 26.3562 35.4167 28.2608 37.4999 28.2608C39.5831 28.2608 39.5832 26.3562 41.6664 26.3562C43.7499 26.3562 43.7499 28.2608 45.8331 28.2608C47.9039 28.2608 47.9175 26.3801 49.9631 26.3571C49.9871 25.9077 50 25.4554 50 25H0Z" fill="#F0F0F0"/>
<path d="M49.9927 24.4231C49.9971 24.6149 50 24.8071 50 25C50 24.8072 49.9972 24.6151 49.9927 24.4231Z" fill="#F0F0F0"/>
<path d="M41.6663 39.327C39.583 39.327 39.583 41.2319 37.4998 41.2319C35.4166 41.2319 35.4165 39.327 33.3333 39.327C31.25 39.327 31.25 41.2319 29.1666 41.2319C27.0831 41.2319 27.0831 39.327 24.9996 39.327C22.9163 39.327 22.9163 41.2319 20.8331 41.2319C18.7501 41.2319 18.7501 39.327 16.6668 39.327C14.5833 39.327 14.5833 41.2319 12.4998 41.2319C10.4163 41.2319 10.4163 39.327 8.33281 39.327C6.89395 39.327 6.44873 40.2356 5.62451 40.7978C7.81094 43.4761 10.5424 45.6914 13.6483 47.2775L25 46.7056L36.3516 47.2774C39.4574 45.6912 42.1889 43.4762 44.3753 40.7979C43.5507 40.2358 43.1055 39.327 41.6663 39.327V39.327Z" fill="#0052B4"/>
<path d="M38.8655 39.9232L31.2606 41.3778L30.2971 33.6957L25 39.3456L19.7031 33.6956L18.7393 41.3777L11.1347 39.9231L14.8641 46.7055L13.6461 47.2784C17.0531 49.0184 20.9118 49.9999 25 49.9999C29.0882 49.9999 32.9469 49.0184 36.3539 47.2786L35.1364 46.7058L38.8655 39.9232Z" fill="#FFDA44"/>
</g>
<defs>
<clipPath id="clip0_407_296">
<rect width="50" height="50" fill="white"/>
</clipPath>
</defs>
</svg>
