<svg width="50" height="51" viewBox="0 0 50 51" fill="none" xmlns="http://www.w3.org/2000/svg">
<g clip-path="url(#clip0_407_347)">
<path d="M25 50.8181C38.8071 50.8181 50 39.6252 50 25.8181C50 12.011 38.8071 0.818115 25 0.818115C11.1929 0.818115 0 12.011 0 25.8181C0 39.6252 11.1929 50.8181 25 50.8181Z" fill="#F0F0F0"/>
<path d="M49.9991 25.7457H22.8985C17.518 31.1264 14.2643 35.2804 10.942 38.6027L25.0725 39.8761L46.9996 37.7022C48.9132 34.1675 50 30.1198 50 25.8181C50 25.7939 49.9991 25.7699 49.9991 25.7457V25.7457Z" fill="#D80027"/>
<path d="M10.9421 13.7892H46.9198C42.6681 6.05796 34.4464 0.818115 25 0.818115C18.1148 0.818115 11.8808 3.60239 7.35977 8.10562L10.9421 13.7892Z" fill="#FFDA44"/>
<path d="M12.029 37.7021C9.78156 39.9496 8.913 41.8326 7.28693 43.4586C11.8138 48.0042 18.0779 50.8181 25 50.8181C34.5055 50.8181 42.7715 45.5129 46.9997 37.7021H12.029Z" fill="#0052B4"/>
<path d="M7.32225 8.06799C-2.44083 17.8311 -2.44083 33.6603 7.32225 43.4235C11.3567 39.389 15.2369 35.5088 25 25.7457L7.32225 8.06799Z" fill="#6DA544"/>
<path d="M6.59425 25.7458C6.59425 22.1034 9.15411 19.0605 12.5725 18.314C12.0471 18.1993 11.502 18.1371 10.942 18.1371C6.73976 18.1371 3.33331 21.5435 3.33331 25.7458C3.33331 29.948 6.73976 33.3545 10.942 33.3545C11.5019 33.3545 12.047 33.2923 12.5725 33.1775C9.15411 32.4309 6.59425 29.3882 6.59425 25.7458V25.7458Z" fill="#F0F0F0"/>
<path d="M12.4886 19.224L12.8934 20.4695H14.2029L13.1434 21.2393L13.5482 22.4848L12.4886 21.7151L11.429 22.4848L11.8338 21.2393L10.7742 20.4695H12.0838L12.4886 19.224Z" fill="#F0F0F0"/>
<path d="M12.4886 22.4849L12.8934 23.7305H14.2029L13.1434 24.5002L13.5482 25.7458L12.4886 24.976L11.429 25.7458L11.8338 24.5002L10.7742 23.7305H12.0838L12.4886 22.4849Z" fill="#F0F0F0"/>
<path d="M12.4886 25.7457L12.8934 26.9912H14.2029L13.1434 27.7611L13.5482 29.0066L12.4886 28.2367L11.429 29.0066L11.8338 27.7611L10.7742 26.9912H12.0838L12.4886 25.7457Z" fill="#F0F0F0"/>
<path d="M12.4886 29.0066L12.8934 30.2521H14.2029L13.1434 31.0219L13.5482 32.2674L12.4886 31.4977L11.429 32.2674L11.8338 31.0219L10.7742 30.2521H12.0838L12.4886 29.0066Z" fill="#F0F0F0"/>
</g>
<defs>
<clipPath id="clip0_407_347">
<rect width="50" height="50" fill="white" transform="translate(0 0.818115)"/>
</clipPath>
</defs>
</svg>
