<svg width="50" height="51" viewBox="0 0 50 51" fill="none" xmlns="http://www.w3.org/2000/svg">
<g clip-path="url(#clip0_407_333)">
<path d="M25 50.9091C38.8071 50.9091 50 39.7162 50 25.9091C50 12.1019 38.8071 0.909058 25 0.909058C11.1929 0.909058 0 12.1019 0 25.9091C0 39.7162 11.1929 50.9091 25 50.9091Z" fill="#F0F0F0"/>
<path d="M25 0.909058C15.0885 0.909058 6.5244 6.67712 2.48065 15.0395H47.5192C43.4756 6.67712 34.9114 0.909058 25 0.909058V0.909058Z" fill="#FF9811"/>
<path d="M25 50.909C34.9114 50.909 43.4756 45.141 47.5193 36.7786H2.48065C6.5244 45.141 15.0885 50.909 25 50.909Z" fill="#6DA544"/>
<path d="M25 34.6047C29.8024 34.6047 33.6956 30.7116 33.6956 25.9091C33.6956 21.1067 29.8024 17.2135 25 17.2135C20.1975 17.2135 16.3044 21.1067 16.3044 25.9091C16.3044 30.7116 20.1975 34.6047 25 34.6047Z" fill="#0052B4"/>
<path d="M25 31.3438C28.0015 31.3438 30.4348 28.9105 30.4348 25.909C30.4348 22.9075 28.0015 20.4742 25 20.4742C21.9985 20.4742 19.5652 22.9075 19.5652 25.909C19.5652 28.9105 21.9985 31.3438 25 31.3438Z" fill="#F0F0F0"/>
<path d="M25 19.2026L26.6766 23.0052L30.8079 22.5559L28.3532 25.9091L30.8079 29.2623L26.6766 28.813L25 32.6155L23.3233 28.813L19.1921 29.2622L21.6468 25.9091L19.1921 22.5559L23.3233 23.0052L25 19.2026Z" fill="#0052B4"/>
</g>
<defs>
<clipPath id="clip0_407_333">
<rect width="50" height="50" fill="white" transform="translate(0 0.909058)"/>
</clipPath>
</defs>
</svg>
