<svg width="50" height="51" viewBox="0 0 50 51" fill="none" xmlns="http://www.w3.org/2000/svg">
<g clip-path="url(#clip0_407_360)">
<path d="M25 50.8181C38.8071 50.8181 50 39.6252 50 25.8181C50 12.011 38.8071 0.818115 25 0.818115C11.1929 0.818115 0 12.011 0 25.8181C0 39.6252 11.1929 50.8181 25 50.8181Z" fill="#F0F0F0"/>
<path d="M15.2174 17.1225H48.4449C44.9127 7.60249 35.749 0.818115 25 0.818115C18.0963 0.818115 11.8469 3.61685 7.32312 8.14126L15.2174 17.1225Z" fill="black"/>
<path d="M15.2174 34.5137H48.4449C44.9127 44.0337 35.749 50.8181 25 50.8181C18.0963 50.8181 11.8469 48.0193 7.32312 43.4949L15.2174 34.5137Z" fill="#6DA544"/>
<path d="M7.32225 8.14038C-2.44083 17.9035 -2.44083 33.7327 7.32225 43.4959C11.3567 39.4614 15.2369 35.5812 25 25.8181L7.32225 8.14038Z" fill="#D80027"/>
<path d="M9.92235 20.3833L11.2943 23.2523L14.3929 22.5362L13.0052 25.3977L15.4969 27.3736L12.3946 28.0728L12.4032 31.2528L9.92235 29.2633L7.44139 31.2528L7.45009 28.0728L4.34784 27.3736L6.83944 25.3977L5.45194 22.5362L8.55028 23.2523L9.92235 20.3833Z" fill="#F0F0F0"/>
</g>
<defs>
<clipPath id="clip0_407_360">
<rect width="50" height="50" fill="white" transform="translate(0 0.818115)"/>
</clipPath>
</defs>
</svg>
